<svg width="10" height="9" viewBox="0 0 10 9" fill="none" xmlns="http://www.w3.org/2000/svg">
<g clip-path="url(#clip0_130_88)">
<path d="M6.63155 2.84211C7.38532 2.84211 8.10822 3.14155 8.64122 3.67454C9.17422 4.20754 9.47366 4.93044 9.47366 5.68422V9.00001H7.57892V5.68422C7.57892 5.43296 7.47911 5.19199 7.30144 5.01432C7.12377 4.83666 6.88281 4.73685 6.63155 4.73685C6.38029 4.73685 6.13933 4.83666 5.96166 5.01432C5.78399 5.19199 5.68418 5.43296 5.68418 5.68422V9.00001H3.78944V5.68422C3.78944 4.93044 4.08888 4.20754 4.62188 3.67454C5.15488 3.14155 5.87778 2.84211 6.63155 2.84211Z" fill="#545454"/>
<path d="M1.89474 3.3158H0V9.00001H1.89474V3.3158Z" fill="#545454"/>
<path d="M0.947369 1.89474C1.47059 1.89474 1.89474 1.47059 1.89474 0.947369C1.89474 0.424151 1.47059 0 0.947369 0C0.424151 0 0 0.424151 0 0.947369C0 1.47059 0.424151 1.89474 0.947369 1.89474Z" fill="#545454"/>
</g>
<defs>
<clipPath id="clip0_130_88">
<rect width="10" height="9" fill="white"/>
</clipPath>
</defs>
</svg>
