<svg width="162" height="32" viewBox="0 0 162 32" fill="none" xmlns="http://www.w3.org/2000/svg">
<path d="M15.1758 1.64062V31.5H9.04395V1.64062H15.1758ZM24.3633 1.64062V6.45996H0V1.64062H24.3633ZM23.0303 20.6309V20.2002C23.0303 18.5732 23.2627 17.0762 23.7275 15.709C24.1924 14.3281 24.8691 13.1318 25.7578 12.1201C26.6465 11.1084 27.7402 10.3223 29.0391 9.76172C30.3379 9.1875 31.8281 8.90039 33.5098 8.90039C35.1914 8.90039 36.6885 9.1875 38.001 9.76172C39.3135 10.3223 40.4141 11.1084 41.3027 12.1201C42.2051 13.1318 42.8887 14.3281 43.3535 15.709C43.8184 17.0762 44.0508 18.5732 44.0508 20.2002V20.6309C44.0508 22.2441 43.8184 23.7412 43.3535 25.1221C42.8887 26.4893 42.2051 27.6855 41.3027 28.7109C40.4141 29.7227 39.3203 30.5088 38.0215 31.0693C36.7227 31.6299 35.2324 31.9102 33.5508 31.9102C31.8691 31.9102 30.3721 31.6299 29.0596 31.0693C27.7607 30.5088 26.6602 29.7227 25.7578 28.7109C24.8691 27.6855 24.1924 26.4893 23.7275 25.1221C23.2627 23.7412 23.0303 22.2441 23.0303 20.6309ZM28.9365 20.2002V20.6309C28.9365 21.5605 29.0186 22.4287 29.1826 23.2354C29.3467 24.042 29.6064 24.7529 29.9619 25.3682C30.3311 25.9697 30.8096 26.4414 31.3975 26.7832C31.9854 27.125 32.7031 27.2959 33.5508 27.2959C34.3711 27.2959 35.0752 27.125 35.6631 26.7832C36.251 26.4414 36.7227 25.9697 37.0781 25.3682C37.4336 24.7529 37.6934 24.042 37.8574 23.2354C38.0352 22.4287 38.124 21.5605 38.124 20.6309V20.2002C38.124 19.2979 38.0352 18.4502 37.8574 17.6572C37.6934 16.8506 37.4268 16.1396 37.0576 15.5244C36.7021 14.8955 36.2305 14.4033 35.6426 14.0479C35.0547 13.6924 34.3438 13.5146 33.5098 13.5146C32.6758 13.5146 31.9648 13.6924 31.377 14.0479C30.8027 14.4033 30.3311 14.8955 29.9619 15.5244C29.6064 16.1396 29.3467 16.8506 29.1826 17.6572C29.0186 18.4502 28.9365 19.2979 28.9365 20.2002ZM60.7852 26.6602V0H66.7324V31.5H61.3799L60.7852 26.6602ZM46.7578 20.6719V20.2412C46.7578 18.5459 46.9492 17.0078 47.332 15.627C47.7148 14.2324 48.2754 13.0361 49.0137 12.0381C49.752 11.04 50.6611 10.2676 51.7412 9.7207C52.8213 9.17383 54.0518 8.90039 55.4326 8.90039C56.7314 8.90039 57.8662 9.17383 58.8369 9.7207C59.8213 10.2676 60.6553 11.0469 61.3389 12.0586C62.0361 13.0566 62.5967 14.2393 63.0205 15.6064C63.4443 16.96 63.752 18.4434 63.9434 20.0566V21C63.752 22.5449 63.4443 23.9805 63.0205 25.3066C62.5967 26.6328 62.0361 27.7949 61.3389 28.793C60.6553 29.7773 59.8213 30.543 58.8369 31.0898C57.8525 31.6367 56.7041 31.9102 55.3916 31.9102C54.0107 31.9102 52.7803 31.6299 51.7002 31.0693C50.6338 30.5088 49.7314 29.7227 48.9932 28.7109C48.2686 27.6992 47.7148 26.5098 47.332 25.1426C46.9492 23.7754 46.7578 22.2852 46.7578 20.6719ZM52.6641 20.2412V20.6719C52.6641 21.5879 52.7324 22.4424 52.8691 23.2354C53.0195 24.0283 53.2588 24.7324 53.5869 25.3477C53.9287 25.9492 54.3662 26.4209 54.8994 26.7627C55.4463 27.0908 56.1094 27.2549 56.8887 27.2549C57.9004 27.2549 58.7344 27.0293 59.3906 26.5781C60.0469 26.1133 60.5459 25.4775 60.8877 24.6709C61.2432 23.8643 61.4482 22.9346 61.5029 21.8818V19.1953C61.4619 18.334 61.3389 17.5615 61.1338 16.8779C60.9424 16.1807 60.6553 15.5859 60.2725 15.0938C59.9033 14.6016 59.4385 14.2188 58.8779 13.9453C58.3311 13.6719 57.6816 13.5352 56.9297 13.5352C56.1641 13.5352 55.5078 13.7129 54.9609 14.0684C54.4141 14.4102 53.9697 14.8818 53.6279 15.4834C53.2998 16.085 53.0537 16.7959 52.8896 17.6162C52.7393 18.4229 52.6641 19.2979 52.6641 20.2412ZM70.4033 20.6309V20.2002C70.4033 18.5732 70.6357 17.0762 71.1006 15.709C71.5654 14.3281 72.2422 13.1318 73.1309 12.1201C74.0195 11.1084 75.1133 10.3223 76.4121 9.76172C77.7109 9.1875 79.2012 8.90039 80.8828 8.90039C82.5645 8.90039 84.0615 9.1875 85.374 9.76172C86.6865 10.3223 87.7871 11.1084 88.6758 12.1201C89.5781 13.1318 90.2617 14.3281 90.7266 15.709C91.1914 17.0762 91.4238 18.5732 91.4238 20.2002V20.6309C91.4238 22.2441 91.1914 23.7412 90.7266 25.1221C90.2617 26.4893 89.5781 27.6855 88.6758 28.7109C87.7871 29.7227 86.6934 30.5088 85.3945 31.0693C84.0957 31.6299 82.6055 31.9102 80.9238 31.9102C79.2422 31.9102 77.7451 31.6299 76.4326 31.0693C75.1338 30.5088 74.0332 29.7227 73.1309 28.7109C72.2422 27.6855 71.5654 26.4893 71.1006 25.1221C70.6357 23.7412 70.4033 22.2441 70.4033 20.6309ZM76.3096 20.2002V20.6309C76.3096 21.5605 76.3916 22.4287 76.5557 23.2354C76.7197 24.042 76.9795 24.7529 77.335 25.3682C77.7041 25.9697 78.1826 26.4414 78.7705 26.7832C79.3584 27.125 80.0762 27.2959 80.9238 27.2959C81.7441 27.2959 82.4482 27.125 83.0361 26.7832C83.624 26.4414 84.0957 25.9697 84.4512 25.3682C84.8066 24.7529 85.0664 24.042 85.2305 23.2354C85.4082 22.4287 85.4971 21.5605 85.4971 20.6309V20.2002C85.4971 19.2979 85.4082 18.4502 85.2305 17.6572C85.0664 16.8506 84.7998 16.1396 84.4307 15.5244C84.0752 14.8955 83.6035 14.4033 83.0156 14.0479C82.4277 13.6924 81.7168 13.5146 80.8828 13.5146C80.0488 13.5146 79.3379 13.6924 78.75 14.0479C78.1758 14.4033 77.7041 14.8955 77.335 15.5244C76.9795 16.1396 76.7197 16.8506 76.5557 17.6572C76.3916 18.4502 76.3096 19.2979 76.3096 20.2002Z" fill="black"/>
<path d="M114.618 26.7012V31.5H99.5859V26.7012H114.618ZM101.575 1.64062V31.5H95.4229V1.64062H101.575ZM124.011 9.31055V31.5H118.084V9.31055H124.011ZM117.715 3.52734C117.715 2.66602 118.016 1.95508 118.617 1.39453C119.219 0.833984 120.025 0.553711 121.037 0.553711C122.035 0.553711 122.835 0.833984 123.437 1.39453C124.052 1.95508 124.359 2.66602 124.359 3.52734C124.359 4.38867 124.052 5.09961 123.437 5.66016C122.835 6.2207 122.035 6.50098 121.037 6.50098C120.025 6.50098 119.219 6.2207 118.617 5.66016C118.016 5.09961 117.715 4.38867 117.715 3.52734ZM140.889 25.3682C140.889 24.9443 140.766 24.5615 140.52 24.2197C140.273 23.8779 139.815 23.5635 139.146 23.2764C138.489 22.9756 137.539 22.7021 136.295 22.4561C135.174 22.21 134.128 21.9023 133.157 21.5332C132.2 21.1504 131.366 20.6924 130.655 20.1592C129.958 19.626 129.411 18.9971 129.015 18.2725C128.618 17.5342 128.42 16.6934 128.42 15.75C128.42 14.8203 128.618 13.9453 129.015 13.125C129.425 12.3047 130.006 11.5801 130.758 10.9512C131.523 10.3086 132.453 9.80957 133.547 9.4541C134.654 9.08496 135.898 8.90039 137.279 8.90039C139.207 8.90039 140.861 9.20801 142.242 9.82324C143.637 10.4385 144.703 11.2861 145.441 12.3662C146.193 13.4326 146.569 14.6494 146.569 16.0166H140.663C140.663 15.4424 140.54 14.9297 140.294 14.4785C140.062 14.0137 139.692 13.6514 139.187 13.3916C138.694 13.1182 138.052 12.9814 137.259 12.9814C136.603 12.9814 136.035 13.0977 135.557 13.3301C135.078 13.5488 134.709 13.8496 134.449 14.2324C134.203 14.6016 134.08 15.0117 134.08 15.4629C134.08 15.8047 134.148 16.1123 134.285 16.3857C134.436 16.6455 134.675 16.8848 135.003 17.1035C135.331 17.3223 135.755 17.5273 136.274 17.7188C136.808 17.8965 137.464 18.0605 138.243 18.2109C139.843 18.5391 141.271 18.9697 142.529 19.5029C143.787 20.0225 144.785 20.7334 145.523 21.6357C146.262 22.5244 146.631 23.6934 146.631 25.1426C146.631 26.127 146.412 27.0293 145.975 27.8496C145.537 28.6699 144.908 29.3877 144.088 30.0029C143.268 30.6045 142.283 31.0762 141.135 31.418C140 31.7461 138.722 31.9102 137.3 31.9102C135.235 31.9102 133.485 31.541 132.05 30.8027C130.628 30.0645 129.548 29.1279 128.81 27.9932C128.085 26.8447 127.723 25.6689 127.723 24.4658H133.321C133.349 25.2725 133.554 25.9219 133.937 26.4141C134.333 26.9062 134.832 27.2617 135.434 27.4805C136.049 27.6992 136.712 27.8086 137.423 27.8086C138.188 27.8086 138.824 27.7061 139.33 27.501C139.836 27.2822 140.219 26.9951 140.479 26.6396C140.752 26.2705 140.889 25.8467 140.889 25.3682ZM161.335 9.31055V13.4941H148.415V9.31055H161.335ZM151.614 3.83496H157.521V24.8145C157.521 25.457 157.603 25.9492 157.767 26.291C157.944 26.6328 158.204 26.8721 158.546 27.0088C158.888 27.1318 159.318 27.1934 159.838 27.1934C160.207 27.1934 160.535 27.1797 160.822 27.1523C161.123 27.1113 161.376 27.0703 161.581 27.0293L161.602 31.377C161.096 31.541 160.549 31.6709 159.961 31.7666C159.373 31.8623 158.724 31.9102 158.013 31.9102C156.714 31.9102 155.579 31.6982 154.608 31.2744C153.651 30.8369 152.913 30.1396 152.394 29.1826C151.874 28.2256 151.614 26.9678 151.614 25.4092V3.83496Z" fill="#8DE0C8"/>
</svg>
